# xmcd
#
# Track frame offsets: 
#        150
#        20550
#        38250
#        57750
#        75825
#        93150
#        115800
#        135525
#        153300
#        173550
#        189675
#        212700
#        232650
#        256875
#        281250
#        298725
#        317550
#
# Disc length: 4553 seconds
#
# Revision: 0
# Processed by: cddbd v1.4PL0 Copyright (c) Steve Scherf et al.
# Submitted via: ExactAudioCopy v0.90b2
#
DISCID=cd11c711
DTITLE=Micheal Bolton - Great Hits 1985-1995
DYEAR=1995
DGENRE=Blues
TTITLE0=Soul Provider
TTITLE1=(Sittin' On) The Dock Of The Bay
TTITLE2=How Am I Supposed To Live Without You
TTITLE3=How Can We Be Lovers
TTITLE4=When I'm Back On My Feet Again
TTITLE5=Georgia On My Mind
TTITLE6=Time, Love and Tenderness
TTITLE7=When A Men Loves A Women
TTITLE8=Missing You Now
TTITLE9=Steel Bars
TTITLE10=Said I Love You But I Lied
TTITLE11=Lean On Me
TTITLE12=Can I Touch You ... There?
TTITLE13=I Promise You
TTITLE14=I found Someone
TTITLE15=A Love So Beautiful
TTITLE16=This River
EXTD=
EXTT0=
EXTT1=
EXTT2=
EXTT3=
EXTT4=
EXTT5=
EXTT6=
EXTT7=
EXTT8=
EXTT9=
EXTT10=
EXTT11=
EXTT12=
EXTT13=
EXTT14=
EXTT15=
EXTT16=
PLAYORDER=
